<?xml version="1.0" encoding="UTF-8"?>
<svg id="Lager_1" xmlns="http://www.w3.org/2000/svg" version="1.1" viewBox="0 0 80.17 52.3">
  <!-- Generator: Adobe Illustrator 29.7.1, SVG Export Plug-In . SVG Version: 2.1.1 Build 8)  -->
  <defs>
    <style>
      .st0 {
        fill: #4682b4;
      }

      .st1 {
        fill: #333;
      }
    </style>
  </defs>
  <g>
    <path class="st0" d="M.04,28.11c1.3-.32,2.95-.47,4.79-.47,2.2,0,4.28.36,5.76,1.69,1.19,1.04,1.73,2.59,1.73,4.32,0,2.27-1.22,4.32-3.56,5.33v.11c2.77.76,4.36,3.06,4.36,5.98,0,2.02-.65,3.6-1.76,4.79-1.4,1.58-3.78,2.34-7.27,2.34-1.8,0-3.1-.11-4.03-.25v-23.83ZM3.86,37.87h1.12c1.98,0,3.56-1.58,3.56-3.78,0-2.02-.94-3.53-3.31-3.53-.58,0-1.04.04-1.37.14v7.16ZM3.86,49.1c.32.07.72.11,1.22.11,2.34,0,4.07-1.4,4.07-4.18s-1.98-4.28-4.18-4.28h-1.12v8.35Z"/>
    <path class="st0" d="M16.35,28.11c1.33-.32,3.02-.47,4.61-.47,2.52,0,4.61.43,6.01,1.76,1.37,1.3,1.84,2.92,1.84,4.93,0,2.81-1.37,5-3.82,6.12v.07c1.73.61,2.59,2.23,3.1,5.11.5,2.95,1.08,5.54,1.48,6.37h-4c-.29-.68-.83-3.06-1.22-5.9-.47-3.17-1.37-4.18-3.31-4.18h-.86v10.08h-3.82v-23.9ZM20.16,38.98h1.01c2.3,0,3.74-1.8,3.74-4.28s-.97-4-3.46-4.03c-.5,0-.97.04-1.29.14v8.17Z"/>
    <path class="st0" d="M35.86,45.71l-1.33,6.3h-3.71l5.4-24.26h4.46l5,24.26h-3.74l-1.3-6.3h-4.79ZM40.25,42.69l-1.01-5.58c-.29-1.58-.61-3.82-.86-5.51h-.11c-.29,1.69-.65,4.03-.94,5.54l-1.04,5.54h3.96Z"/>
    <path class="st0" d="M51.74,27.75v15.98c0,3.92,1.22,5.18,2.74,5.18,1.69,0,2.81-1.22,2.81-5.18v-15.98h3.85v15.33c0,6.26-2.48,9.21-6.66,9.21-4.43,0-6.59-2.99-6.59-9.04v-15.51h3.85Z"/>
    <path class="st0" d="M65.31,52.01v-24.26h3.53l4.1,10.37c.86,2.2,2.09,5.33,2.84,7.67h.07c-.22-3.1-.43-6.84-.43-11.19v-6.84h3.38v24.26h-3.53l-4.14-10.33c-.9-2.23-1.98-5.15-2.66-7.7h-.07c.18,2.81.29,6.23.29,11.27v6.77h-3.38Z"/>
  </g>
  <g>
    <path class="st0" d="M3.85.11v10.04h5.76V.11h3.85v24.26h-3.85v-10.69H3.85v10.69H0V.11h3.85Z"/>
    <path class="st0" d="M27.32,13.32h-5.76v7.7h6.55v3.35h-10.4V.11h9.97v3.35h-6.12v6.66h5.76v3.2Z"/>
    <path class="st0" d="M31.25,24.37V.11h3.53l4.1,10.37c.86,2.2,2.09,5.33,2.84,7.67h.07c-.22-3.1-.43-6.84-.43-11.19V.11h3.38v24.26h-3.53l-4.14-10.33c-.9-2.23-1.98-5.15-2.66-7.7h-.07c.18,2.81.29,6.23.29,11.27v6.77h-3.38Z"/>
    <path class="st0" d="M49,.47c1.33-.32,3.02-.47,4.61-.47,2.52,0,4.61.43,6.01,1.76,1.37,1.3,1.84,2.92,1.84,4.93,0,2.81-1.37,5-3.82,6.12v.07c1.73.61,2.59,2.23,3.1,5.11.5,2.95,1.08,5.54,1.48,6.37h-4c-.29-.68-.83-3.06-1.22-5.9-.47-3.17-1.37-4.18-3.31-4.18h-.86v10.08h-3.82V.47ZM52.81,11.34h1.01c2.3,0,3.74-1.8,3.74-4.28s-.97-4-3.46-4.03c-.5,0-.97.04-1.29.14v8.17Z"/>
    <path class="st0" d="M68.79.11v24.26h-3.85V.11h3.85Z"/>
  </g>
  <circle class="st1" cx="76.62" cy="12.17" r="3.54"/>
</svg>