<?xml version="1.0" encoding="UTF-8"?>
<svg id="Lager_1" xmlns="http://www.w3.org/2000/svg" version="1.1" viewBox="0 0 64 64">
  <!-- Generator: Adobe Illustrator 29.7.1, SVG Export Plug-In . SVG Version: 2.1.1 Build 8)  -->
  <defs>
    <style>
      .st0 {
        fill: #4682b4;
      }

      .st1 {
        fill: #fff;
      }

      .st2 {
        fill: #333;
      }
    </style>
  </defs>
  <rect class="st1" width="64" height="64"/>
  <g>
    <path class="st2" d="M39.66,19.26c1.4-.35,3.19-.51,5.17-.51,2.37,0,4.62.39,6.22,1.83,1.28,1.13,1.87,2.8,1.87,4.66,0,2.45-1.32,4.66-3.85,5.75v.12c2.99.82,4.7,3.3,4.7,6.45,0,2.18-.7,3.89-1.9,5.17-1.51,1.71-4.08,2.53-7.85,2.53-1.94,0-3.34-.12-4.35-.27v-25.72ZM43.78,29.79h1.2c2.14,0,3.85-1.71,3.85-4.08,0-2.18-1.01-3.81-3.57-3.81-.62,0-1.13.04-1.48.15v7.73ZM43.78,41.91c.35.08.78.12,1.32.12,2.53,0,4.39-1.52,4.39-4.51s-2.14-4.62-4.51-4.62h-1.2v9.01Z"/>
    <path class="st2" d="M14.4,18.87v10.84h6.22v-10.84h4.16v26.19h-4.16v-11.54h-6.22v11.54h-4.16v-26.19h4.16Z"/>
    <circle class="st0" cx="32.2" cy="31.89" r="3.82"/>
  </g>
</svg>
